<svg width="82" height="25" viewBox="0 0 82 25" fill="none" xmlns="http://www.w3.org/2000/svg">
<path d="M0.295455 24V0.727272H9.02273C10.8106 0.727272 12.3106 1.06061 13.5227 1.72727C14.7424 2.39394 15.6629 3.31061 16.2841 4.47727C16.9129 5.63636 17.2273 6.95454 17.2273 8.43182C17.2273 9.92424 16.9129 11.25 16.2841 12.4091C15.6553 13.5682 14.7273 14.4811 13.5 15.1477C12.2727 15.8068 10.7614 16.1364 8.96591 16.1364H3.18182V12.6705H8.39773C9.44318 12.6705 10.2992 12.4886 10.9659 12.125C11.6326 11.7614 12.125 11.2614 12.4432 10.625C12.7689 9.98864 12.9318 9.25758 12.9318 8.43182C12.9318 7.60606 12.7689 6.87879 12.4432 6.25C12.125 5.62121 11.6288 5.13258 10.9545 4.78409C10.2879 4.42803 9.42803 4.25 8.375 4.25H4.51136V24H0.295455ZM24.821 0.727272V24H20.7074V0.727272H24.821ZM34.0739 24.3523C32.9678 24.3523 31.9716 24.1553 31.0852 23.7614C30.2064 23.3598 29.5095 22.7689 28.9943 21.9886C28.4867 21.2083 28.233 20.2462 28.233 19.1023C28.233 18.1174 28.4148 17.303 28.7784 16.6591C29.142 16.0152 29.6383 15.5 30.267 15.1136C30.8958 14.7273 31.6042 14.4356 32.392 14.2386C33.1875 14.0341 34.0095 13.8864 34.858 13.7955C35.8807 13.6894 36.7102 13.5947 37.3466 13.5114C37.983 13.4205 38.4451 13.2841 38.733 13.1023C39.0284 12.9129 39.1761 12.6212 39.1761 12.2273V12.1591C39.1761 11.303 38.9223 10.6402 38.4148 10.1705C37.9072 9.70076 37.1761 9.46591 36.2216 9.46591C35.214 9.46591 34.4148 9.68561 33.8239 10.125C33.2405 10.5644 32.8466 11.0833 32.642 11.6818L28.8011 11.1364C29.1042 10.0758 29.6042 9.18939 30.3011 8.47727C30.9981 7.75757 31.8504 7.2197 32.858 6.86364C33.8655 6.5 34.9792 6.31818 36.1989 6.31818C37.0398 6.31818 37.8769 6.41667 38.7102 6.61364C39.5436 6.81061 40.3049 7.13636 40.9943 7.59091C41.6837 8.03788 42.2367 8.64773 42.6534 9.42045C43.0777 10.1932 43.2898 11.1591 43.2898 12.3182V24H39.3352V21.6023H39.1989C38.9489 22.0871 38.5966 22.5417 38.142 22.9659C37.6951 23.3826 37.1307 23.7197 36.4489 23.9773C35.7746 24.2273 34.983 24.3523 34.0739 24.3523ZM35.142 21.3295C35.9678 21.3295 36.6837 21.1667 37.2898 20.8409C37.8958 20.5076 38.3617 20.0682 38.6875 19.5227C39.0208 18.9773 39.1875 18.3826 39.1875 17.7386V15.6818C39.0587 15.7879 38.839 15.8864 38.5284 15.9773C38.2254 16.0682 37.8845 16.1477 37.5057 16.2159C37.1269 16.2841 36.7519 16.3447 36.3807 16.3977C36.0095 16.4508 35.6875 16.4962 35.4148 16.5341C34.8011 16.6174 34.2519 16.7538 33.767 16.9432C33.2822 17.1326 32.8996 17.3977 32.6193 17.7386C32.339 18.072 32.1989 18.5038 32.1989 19.0341C32.1989 19.7917 32.4754 20.3636 33.0284 20.75C33.5814 21.1364 34.286 21.3295 35.142 21.3295ZM55.0398 24.3409C53.2973 24.3409 51.8011 23.9583 50.5511 23.1932C49.3087 22.428 48.3504 21.3712 47.6761 20.0227C47.0095 18.6667 46.6761 17.1061 46.6761 15.3409C46.6761 13.5682 47.017 12.0038 47.6989 10.6477C48.3807 9.28409 49.3428 8.22348 50.5852 7.46591C51.8352 6.70076 53.3125 6.31818 55.017 6.31818C56.4337 6.31818 57.6875 6.57955 58.7784 7.10227C59.8769 7.61742 60.7519 8.34848 61.4034 9.29545C62.0549 10.2348 62.4261 11.3333 62.517 12.5909H58.5852C58.4261 11.75 58.0473 11.0492 57.4489 10.4886C56.858 9.92045 56.0663 9.63636 55.0739 9.63636C54.233 9.63636 53.4943 9.86364 52.858 10.3182C52.2216 10.7652 51.7254 11.4091 51.3693 12.25C51.0208 13.0909 50.8466 14.0985 50.8466 15.2727C50.8466 16.4621 51.0208 17.4848 51.3693 18.3409C51.7178 19.1894 52.2064 19.8447 52.8352 20.3068C53.4716 20.7614 54.2178 20.9886 55.0739 20.9886C55.6799 20.9886 56.2216 20.875 56.6989 20.6477C57.1837 20.4129 57.589 20.0758 57.9148 19.6364C58.2405 19.197 58.464 18.6629 58.5852 18.0341H62.517C62.4186 19.2689 62.0549 20.3636 61.4261 21.3182C60.7973 22.2652 59.9413 23.0076 58.858 23.5455C57.7746 24.0758 56.5019 24.3409 55.0398 24.3409ZM73.6222 24.3409C71.8722 24.3409 70.3608 23.9773 69.0881 23.25C67.8229 22.5152 66.8494 21.4773 66.1676 20.1364C65.4858 18.7879 65.1449 17.2008 65.1449 15.375C65.1449 13.5795 65.4858 12.0038 66.1676 10.6477C66.857 9.28409 67.8191 8.22348 69.054 7.46591C70.2888 6.70076 71.7396 6.31818 73.4062 6.31818C74.482 6.31818 75.4972 6.49242 76.4517 6.84091C77.4138 7.18182 78.2623 7.71212 78.9972 8.43182C79.7396 9.15151 80.3229 10.0682 80.7472 11.1818C81.1714 12.2879 81.3835 13.6061 81.3835 15.1364V16.3977H67.0767V13.625H77.4403C77.4328 12.8371 77.2623 12.1364 76.929 11.5227C76.5956 10.9015 76.1297 10.4129 75.5312 10.0568C74.9403 9.70076 74.2509 9.52273 73.4631 9.52273C72.6222 9.52273 71.8835 9.72727 71.2472 10.1364C70.6108 10.5379 70.1146 11.0682 69.7585 11.7273C69.41 12.3788 69.232 13.0947 69.2244 13.875V16.2955C69.2244 17.3106 69.41 18.1818 69.7812 18.9091C70.1525 19.6288 70.6714 20.1818 71.3381 20.5682C72.0047 20.947 72.785 21.1364 73.679 21.1364C74.2775 21.1364 74.8191 21.053 75.304 20.8864C75.7888 20.7121 76.2093 20.4583 76.5653 20.125C76.9214 19.7917 77.1903 19.3788 77.3722 18.8864L81.2131 19.3182C80.9706 20.3333 80.5085 21.2197 79.8267 21.9773C79.1525 22.7273 78.2888 23.3106 77.2358 23.7273C76.1828 24.1364 74.9782 24.3409 73.6222 24.3409Z" fill="white"/>
</svg>
